<svg width="36" height="36" viewBox="0 0 36 36" fill="none" xmlns="http://www.w3.org/2000/svg">
<g clip-path="url(#clip0_699_29575)">
<path d="M29.9265 6H7.06981C6.52905 6 6.04594 6.44906 6 6.97292V24.8722C6.04594 25.3961 6.52905 25.8443 7.06981 25.8443H14.0159L14.142 29.9994L20.2661 26.0311C20.3278 26.0311 20.3922 25.9069 20.5186 25.8449H29.9265C30.4947 25.8449 31 25.3489 31 24.7908V7.05438C31 6.4963 30.4947 6 29.9265 6ZM12.0625 18.1505C11.6722 18.1505 11.2907 18.0368 10.9663 17.8239C10.6418 17.6109 10.3889 17.3083 10.2395 16.9542C10.0902 16.6 10.0511 16.2104 10.1272 15.8344C10.2034 15.4585 10.3913 15.1132 10.6673 14.8422C10.9432 14.5711 11.2948 14.3866 11.6775 14.3118C12.0603 14.237 12.457 14.2754 12.8176 14.4221C13.1781 14.5687 13.4863 14.8171 13.7031 15.1358C13.9199 15.4545 14.0356 15.8292 14.0356 16.2125C14.0372 16.4674 13.9872 16.7201 13.8886 16.956C13.79 17.1918 13.6447 17.406 13.4612 17.5863C13.2776 17.7665 13.0595 17.9092 12.8194 18.0061C12.5793 18.1029 12.322 18.152 12.0625 18.1505ZM18.5153 18.1505C18.4965 18.1505 18.478 18.1505 18.4595 18.1505C18.4505 18.1505 18.4419 18.1505 18.4333 18.1505C18.4246 18.1505 18.4123 18.1505 18.4024 18.149L18.367 18.1469C18.3158 18.1432 18.2652 18.1375 18.215 18.1299C18.1999 18.1278 18.1841 18.1254 18.17 18.1226L18.1613 18.1211L18.1222 18.1139L18.0642 18.1014C18.0479 18.0978 18.0318 18.0939 18.0158 18.0896L17.9662 18.076C17.9582 18.0739 17.9501 18.0718 17.9421 18.069L17.9014 18.0566L17.894 18.0542C17.8752 18.0481 17.8564 18.0418 17.8379 18.0351C17.8194 18.0285 17.7988 18.0206 17.7793 18.0127C17.7599 18.0048 17.7423 17.9982 17.7242 17.99C17.706 17.9818 17.6872 17.974 17.669 17.9652C17.6508 17.9564 17.6341 17.9488 17.6172 17.9403L17.6144 17.9388C17.5963 17.9297 17.5784 17.9204 17.5608 17.9107C17.546 17.9028 17.5299 17.8943 17.517 17.8861C17.5093 17.8819 17.5019 17.8774 17.4945 17.8728C17.4794 17.864 17.4636 17.8547 17.4491 17.8453C17.4347 17.8359 17.4159 17.8238 17.3995 17.8126C17.3775 17.798 17.3559 17.7829 17.3348 17.7671C17.32 17.7562 17.3055 17.7453 17.2913 17.7341C17.2771 17.7229 17.2577 17.7075 17.2414 17.6939C17.225 17.6802 17.2087 17.6663 17.1926 17.6521C17.1766 17.6378 17.1667 17.6291 17.1541 17.6169L17.1421 17.6054C17.1304 17.5945 17.1186 17.583 17.1072 17.5715C17.0764 17.5412 17.0484 17.511 17.0206 17.4792L17.0009 17.4565L16.9836 17.4359L16.9633 17.4107C16.9503 17.3946 16.9377 17.3782 16.9253 17.3617C16.9149 17.3477 16.9047 17.3338 16.8945 17.3196C16.8862 17.3084 16.8785 17.2969 16.8708 17.2854C16.8631 17.2739 16.8591 17.2684 16.8535 17.2596C16.8353 17.2318 16.8177 17.2033 16.8011 17.1742C16.7955 17.1655 16.7906 17.1564 16.7854 17.147C16.7801 17.1376 16.773 17.1249 16.7672 17.1134C16.7567 17.0943 16.7468 17.0749 16.7364 17.0552C16.7323 17.0471 16.7283 17.0389 16.7246 17.0307C16.7175 17.0159 16.7105 17.0004 16.704 16.9856C16.6975 16.9708 16.6929 16.9605 16.6879 16.9477C16.683 16.935 16.6744 16.9153 16.6682 16.899C16.6651 16.8911 16.6621 16.8832 16.6593 16.8751C16.6565 16.8669 16.6534 16.8599 16.651 16.8521C16.6485 16.8442 16.6426 16.8284 16.6389 16.8166C16.6294 16.7882 16.6204 16.7594 16.6124 16.7303C16.6081 16.7152 16.6038 16.7 16.6001 16.684C16.5985 16.6788 16.5973 16.6737 16.5961 16.6686C16.5927 16.6552 16.5896 16.6416 16.5868 16.628C16.5797 16.5977 16.5739 16.5659 16.5686 16.5347C16.5662 16.5217 16.5643 16.509 16.5625 16.4956C16.5625 16.4899 16.5606 16.4838 16.56 16.4781C16.5569 16.4581 16.5545 16.4381 16.5526 16.4175C16.5508 16.3969 16.5489 16.3827 16.5477 16.3651C16.5477 16.3551 16.5461 16.3448 16.5455 16.3349C16.5455 16.3197 16.5437 16.3046 16.5434 16.2891C16.5432 16.2866 16.5432 16.2841 16.5434 16.2816C16.5434 16.2601 16.5434 16.2383 16.5434 16.2165C16.5434 16.165 16.5455 16.1138 16.5495 16.0632C16.5495 16.0484 16.552 16.033 16.5535 16.0181C16.5551 16.0033 16.5566 15.99 16.5585 15.9757C16.5603 15.9615 16.5609 15.956 16.5625 15.9454C16.572 15.877 16.5854 15.8092 16.6025 15.7423C16.6053 15.7311 16.6084 15.7195 16.6115 15.7083C16.6251 15.6593 16.6405 15.6105 16.658 15.563C16.6621 15.5512 16.6667 15.5391 16.6713 15.5276C16.6759 15.5161 16.679 15.5073 16.6833 15.4973C16.6876 15.4873 16.6913 15.4767 16.696 15.467C16.704 15.4479 16.7126 15.4289 16.7216 15.4098C16.7265 15.3986 16.7317 15.3877 16.7373 15.3768C16.745 15.3607 16.7533 15.3447 16.7616 15.3286C16.7666 15.3189 16.7718 15.3092 16.777 15.2999C16.8017 15.255 16.8279 15.2108 16.856 15.1681C16.8621 15.1584 16.8686 15.1491 16.8751 15.1397L16.8924 15.1148C16.9004 15.103 16.9087 15.0915 16.9173 15.08C16.926 15.0685 16.9355 15.0555 16.9448 15.0437C16.954 15.0319 16.9688 15.0134 16.9811 14.998L17.0024 14.9725C17.0332 14.938 17.0641 14.9041 17.0949 14.8714C17.0968 14.8692 17.0989 14.8672 17.1011 14.8653C17.1103 14.8559 17.1196 14.8466 17.1291 14.8375C17.1387 14.8284 17.1523 14.8154 17.164 14.8045L17.1997 14.7721C17.2118 14.7612 17.2241 14.7509 17.2364 14.7418C17.2488 14.7327 17.2611 14.7212 17.2737 14.7115C17.2864 14.7018 17.2981 14.6921 17.3104 14.6812L17.3135 14.6791C17.3255 14.6697 17.3375 14.6606 17.3499 14.6521L17.3517 14.6506C17.3641 14.6419 17.3764 14.6331 17.389 14.6246L17.3924 14.6222C17.4041 14.614 17.4162 14.6061 17.4285 14.5982C17.4408 14.5904 17.4618 14.5767 17.4787 14.568C17.488 14.5622 17.4969 14.5568 17.5062 14.5516C17.5234 14.5413 17.541 14.5313 17.5586 14.5213C17.5685 14.5156 17.5786 14.5101 17.5894 14.5047L17.6252 14.4865L17.656 14.4714C17.689 14.4556 17.7226 14.4411 17.7565 14.4272C17.7679 14.422 17.7796 14.4175 17.7914 14.4129C17.8031 14.4084 17.8142 14.4041 17.8256 14.4002L17.8564 14.389C17.8771 14.3817 17.8977 14.3748 17.9181 14.3684C17.9329 14.3636 17.9489 14.3593 17.9631 14.3551C17.9773 14.3509 17.9908 14.3472 18.0047 14.3436L18.013 14.3415C18.0263 14.3378 18.0395 14.3345 18.0531 14.3315L18.0812 14.3251L18.1179 14.3172C18.1382 14.3133 18.1586 14.3094 18.1795 14.306L18.2159 14.3003L18.2591 14.2942C18.276 14.2921 18.2927 14.29 18.3096 14.2885C18.3266 14.287 18.3405 14.2851 18.358 14.2842C18.3756 14.2833 18.3941 14.2815 18.4123 14.2806C18.4305 14.2797 18.4407 14.2806 18.4551 14.2788C18.4755 14.2788 18.4958 14.2788 18.5168 14.2788C19.0401 14.2788 19.542 14.483 19.912 14.8464C20.2821 15.2098 20.4899 15.7028 20.4899 16.2168C20.4899 16.7307 20.2821 17.2237 19.912 17.5871C19.542 17.9506 19.0401 18.1547 18.5168 18.1547L18.5153 18.1505ZM24.968 18.1505C24.9492 18.1505 24.9304 18.1505 24.9119 18.1505H24.8891L24.8521 18.1487L24.8213 18.1466H24.8083L24.7686 18.1432C24.7266 18.139 24.6847 18.1335 24.6434 18.1266C24.628 18.1242 24.6126 18.1217 24.5978 18.1187L24.5885 18.1169C24.57 18.1136 24.5515 18.1096 24.533 18.1057C24.4979 18.0981 24.4634 18.0893 24.4288 18.0796H24.4257L24.3924 18.0699C24.3786 18.066 24.3647 18.0615 24.3508 18.0569C24.337 18.0524 24.316 18.0454 24.2987 18.0394C24.287 18.0351 24.275 18.0309 24.2636 18.0263L24.2457 18.0197C24.2374 18.0167 24.229 18.0133 24.221 18.0097C24.213 18.0061 24.1976 18.0006 24.1862 17.9955C24.1748 17.9903 24.1554 17.983 24.1424 17.9764L24.1171 17.9646L24.1079 17.9603L24.0709 17.9422C24.0552 17.9343 24.0401 17.9261 24.0243 17.9179L23.9812 17.8937C23.971 17.8883 23.9611 17.8822 23.9503 17.8765C23.9217 17.8595 23.8933 17.8416 23.8652 17.8232C23.8523 17.8144 23.839 17.8056 23.8264 17.7965C23.8138 17.7874 23.8011 17.7789 23.7888 17.7696C23.7107 17.7123 23.637 17.6495 23.5684 17.5815L23.5425 17.5555C23.5153 17.5276 23.4888 17.4985 23.4632 17.4689C23.4534 17.4577 23.4438 17.4465 23.4345 17.435C23.4191 17.4162 23.404 17.3971 23.3892 17.3777C23.3763 17.3611 23.3636 17.3438 23.3513 17.3266V17.3247C23.3393 17.3078 23.3276 17.2908 23.3162 17.2733C23.3044 17.2563 23.2933 17.239 23.2826 17.2215C23.2718 17.2039 23.2647 17.1912 23.256 17.1767C23.2511 17.1685 23.2462 17.1603 23.2415 17.1518C23.2369 17.1434 23.2308 17.1322 23.2255 17.1216C23.2116 17.0967 23.1987 17.0713 23.1864 17.0455C23.1787 17.0295 23.1713 17.0138 23.1642 16.9977C23.1537 16.9744 23.1435 16.9505 23.1333 16.9265C23.1262 16.9087 23.1192 16.8905 23.1124 16.8723C23.1124 16.8693 23.1102 16.8663 23.1093 16.8633C23.104 16.8493 23.0991 16.8351 23.0945 16.8209L23.0871 16.7982C23.0815 16.7806 23.076 16.763 23.0711 16.7455C23.0661 16.7279 23.06 16.7058 23.0547 16.6849C23.051 16.6701 23.0473 16.6546 23.0442 16.6398C23.0415 16.6292 23.0393 16.6183 23.0368 16.6077C23.0325 16.5862 23.0282 16.5647 23.0248 16.5432C23.0214 16.5217 23.0186 16.5081 23.0165 16.4905C23.0163 16.4879 23.0163 16.4852 23.0165 16.4826C23.0134 16.4626 23.0109 16.4427 23.0088 16.4221C23.0066 16.4015 23.0038 16.3721 23.0023 16.3467C23.0023 16.327 22.9998 16.3073 22.9992 16.2861C22.9991 16.2835 22.9991 16.2809 22.9992 16.2782C22.9992 16.2567 22.9992 16.2352 22.9992 16.2134C22.9992 16.162 23.0014 16.1108 23.0054 16.0602C23.0054 16.0454 23.0079 16.0299 23.0094 16.0151C23.0109 16.0003 23.0125 15.9869 23.0143 15.9727C23.0162 15.9585 23.0168 15.953 23.0183 15.9424C23.0279 15.874 23.0413 15.8062 23.0584 15.7392C23.0612 15.728 23.0643 15.7165 23.0674 15.7053C23.0809 15.6563 23.0963 15.6075 23.1139 15.56C23.1179 15.5482 23.1225 15.536 23.1272 15.5245C23.1318 15.513 23.1349 15.5043 23.1392 15.4943C23.1435 15.4843 23.1472 15.4737 23.1518 15.464C23.1598 15.4449 23.1685 15.4258 23.1774 15.4067C23.1824 15.3955 23.1876 15.3846 23.1931 15.3737C23.2009 15.3577 23.2092 15.3416 23.2175 15.3256C23.2224 15.3159 23.2277 15.3062 23.2329 15.2968C23.2576 15.252 23.2838 15.2078 23.3118 15.1651C23.318 15.1554 23.3245 15.146 23.331 15.1366L23.3482 15.1118C23.3562 15.1 23.3646 15.0885 23.3732 15.077C23.3818 15.0655 23.3914 15.0525 23.4006 15.0407C23.4099 15.0288 23.4247 15.0104 23.437 14.9949L23.4583 14.9695C23.4891 14.935 23.5199 14.9011 23.5508 14.8684C23.5527 14.8662 23.5547 14.8642 23.5569 14.8623C23.5662 14.8529 23.5754 14.8435 23.585 14.8344C23.5946 14.8254 23.6081 14.8123 23.6198 14.8014L23.6556 14.769C23.6676 14.7581 23.68 14.7478 23.6923 14.7388C23.7046 14.7297 23.717 14.7182 23.7296 14.7085C23.7422 14.6988 23.754 14.6891 23.7663 14.6782L23.7694 14.6761C23.7814 14.6667 23.7934 14.6576 23.8057 14.6491L23.8076 14.6476C23.8199 14.6388 23.8323 14.63 23.8449 14.6216L23.8483 14.6191C23.86 14.611 23.8723 14.6031 23.8844 14.5952C23.8964 14.5873 23.9177 14.5737 23.9346 14.5649C23.9439 14.5592 23.9528 14.5537 23.9621 14.5486C23.9793 14.5383 23.9969 14.5283 24.0145 14.5183C24.0243 14.5126 24.0345 14.5071 24.0453 14.5017L24.0811 14.4835C24.0912 14.4783 24.1014 14.4732 24.1119 14.4683C24.1449 14.4526 24.1785 14.4381 24.2124 14.4241C24.2238 14.419 24.2355 14.4144 24.2472 14.4099L24.2815 14.3972L24.3123 14.386C24.3329 14.3787 24.3536 14.3717 24.3739 14.3654C24.3887 14.3605 24.4048 14.3563 24.419 14.3521C24.4331 14.3478 24.4467 14.3442 24.4606 14.3406L24.4689 14.3384C24.4822 14.3348 24.4954 14.3315 24.509 14.3284L24.537 14.3221L24.5737 14.3142C24.5941 14.3103 24.6144 14.3063 24.6354 14.303L24.6718 14.2973L24.7149 14.2912C24.7319 14.2891 24.7485 14.287 24.7655 14.2854C24.7824 14.2839 24.7979 14.2821 24.8139 14.2812C24.8299 14.2803 24.85 14.2785 24.8682 14.2776C24.8863 14.2767 24.8965 14.2776 24.911 14.2758C24.9314 14.2758 24.9517 14.2758 24.9727 14.2758C25.496 14.2758 25.9979 14.4799 26.3679 14.8434C26.7379 15.2068 26.9458 15.6997 26.9458 16.2137C26.9458 16.7277 26.7379 17.2206 26.3679 17.5841C25.9979 17.9475 25.496 18.1517 24.9727 18.1517L24.968 18.1505Z" fill="black"/>
</g>
<defs>
<clipPath id="clip0_699_29575">
<rect width="25" height="24" fill="white" transform="translate(6 6)"/>
</clipPath>
</defs>
</svg>
